<?xml version="1.0" encoding="UTF-8"?>
<!DOCTYPE svg PUBLIC "-//W3C//DTD SVG 1.1//EN" "http://www.w3.org/Graphics/SVG/1.1/DTD/svg11.dtd">
<svg xmlns="http://www.w3.org/2000/svg" version="1.1" width="527px" height="474px" style="shape-rendering:geometricPrecision; text-rendering:geometricPrecision; image-rendering:optimizeQuality; fill-rule:evenodd; clip-rule:evenodd" xmlns:xlink="http://www.w3.org/1999/xlink">
<g><path style="opacity:1" fill="#778a1f" d="M 142.5,75.5 C 144.735,75.2053 146.735,75.5386 148.5,76.5C 147.504,76.4142 146.671,76.7476 146,77.5C 133.757,96.1264 133.424,114.793 145,133.5C 145.497,135.81 145.663,138.143 145.5,140.5C 147.792,140.756 149.959,140.423 152,139.5C 151.671,132.879 151.504,126.212 151.5,119.5C 154.659,114.774 156.326,109.441 156.5,103.5C 157.353,99.9796 159.353,97.3129 162.5,95.5C 164.099,95.2322 165.432,95.5655 166.5,96.5C 163.368,114.001 161.702,131.668 161.5,149.5C 161.265,150.097 160.765,150.43 160,150.5C 158.594,149.586 157.094,148.92 155.5,148.5C 155.167,148.5 154.833,148.5 154.5,148.5C 154.539,146.776 154.206,146.443 153.5,147.5C 152.596,146.791 152.263,145.791 152.5,144.5C 153.833,144.167 153.833,143.833 152.5,143.5C 151.779,141.618 150.779,141.285 149.5,142.5C 142.54,141.854 136.873,138.854 132.5,133.5C 131.696,128.601 129.363,124.601 125.5,121.5C 124.711,118.354 124.045,115.187 123.5,112C 124.788,112.027 125.788,111.027 126.5,109C 125.216,108.316 124.049,108.483 123,109.5C 122.502,106.183 122.335,102.85 122.5,99.5C 124.142,93.0141 127.309,87.3475 132,82.5C 135.128,79.5264 138.628,77.1931 142.5,75.5 Z"/></g>
<g><path style="opacity:1" fill="#9cab49" d="M 142.5,75.5 C 144.895,74.1857 147.395,74.1857 150,75.5C 151.763,87.7668 152.763,100.1 153,112.5C 153.9,109.282 155.067,106.282 156.5,103.5C 156.326,109.441 154.659,114.774 151.5,119.5C 150.542,118.038 149.376,116.705 148,115.5C 147.424,113.623 147.591,111.789 148.5,110C 146.148,106.818 144.481,103.318 143.5,99.5C 143.833,98.5 144.167,97.5 144.5,96.5C 146.536,100.044 148.369,103.711 150,107.5C 150.734,96.9614 150.234,86.628 148.5,76.5C 146.735,75.5386 144.735,75.2053 142.5,75.5 Z"/></g>
<g><path style="opacity:1" fill="#d9dad6" d="M 293.5,92.5 C 286.371,94.058 279.038,95.2247 271.5,96C 270.584,96.2784 269.918,96.7784 269.5,97.5C 239.039,101.449 208.705,105.449 178.5,109.5C 178.167,109.5 177.833,109.5 177.5,109.5C 177.5,108.5 177.5,107.5 177.5,106.5C 215.509,101.647 253.509,96.6469 291.5,91.5C 292.416,91.5427 293.083,91.8761 293.5,92.5 Z"/></g>
<g><path style="opacity:1" fill="#929e52" d="M 122.5,99.5 C 122.335,102.85 122.502,106.183 123,109.5C 124.049,108.483 125.216,108.316 126.5,109C 125.788,111.027 124.788,112.027 123.5,112C 124.045,115.187 124.711,118.354 125.5,121.5C 129.363,124.601 131.696,128.601 132.5,133.5C 122.131,124.129 118.798,112.796 122.5,99.5 Z"/></g>
<g><path style="opacity:1" fill="#d8d3c4" d="M 295.5,93.5 C 298.635,105.04 301.301,116.706 303.5,128.5C 301.357,125.083 299.857,120.75 299,115.5C 297.736,108.612 296.236,101.778 294.5,95C 294.57,94.2352 294.903,93.7352 295.5,93.5 Z"/></g>
<g><path style="opacity:1" fill="#c9dafb" d="M 217.5,115.5 C 205.202,117.018 192.869,118.352 180.5,119.5C 182.495,130.15 184.495,140.816 186.5,151.5C 184.735,152.461 182.735,152.795 180.5,152.5C 180.441,146.748 178.775,141.748 175.5,137.5C 175.5,136.833 175.5,136.167 175.5,135.5C 176.117,135.389 176.617,135.056 177,134.5C 177.502,131.487 178.002,128.487 178.5,125.5C 179.483,121.702 179.817,117.702 179.5,113.5C 191.443,111.606 203.443,110.439 215.5,110C 217.155,111.444 217.822,113.278 217.5,115.5 Z"/></g>
<g><path style="opacity:1" fill="#95a72f" d="M 148.5,76.5 C 150.234,86.628 150.734,96.9614 150,107.5C 148.369,103.711 146.536,100.044 144.5,96.5C 144.167,97.5 143.833,98.5 143.5,99.5C 144.481,103.318 146.148,106.818 148.5,110C 147.591,111.789 147.424,113.623 148,115.5C 149.376,116.705 150.542,118.038 151.5,119.5C 151.504,126.212 151.671,132.879 152,139.5C 149.959,140.423 147.792,140.756 145.5,140.5C 145.663,138.143 145.497,135.81 145,133.5C 133.424,114.793 133.757,96.1264 146,77.5C 146.671,76.7476 147.504,76.4142 148.5,76.5 Z"/></g>
<g><path style="opacity:1" fill="#95a731" d="M 166.5,96.5 C 167.902,98.253 169.735,99.9196 172,101.5C 172.651,103.235 172.485,104.902 171.5,106.5C 171.833,106.833 172.167,107.167 172.5,107.5C 173.251,106.624 173.751,105.624 174,104.5C 175.471,108.748 176.638,113.082 177.5,117.5C 177.471,119.029 176.804,120.196 175.5,121C 176.755,125.801 176.755,130.635 175.5,135.5C 175.5,136.167 175.5,136.833 175.5,137.5C 175.5,137.833 175.5,138.167 175.5,138.5C 173.255,141.32 171.255,144.32 169.5,147.5C 169.167,148.5 168.5,149.167 167.5,149.5C 165.5,149.5 163.5,149.5 161.5,149.5C 161.702,131.668 163.368,114.001 166.5,96.5 Z"/></g>
<g><path style="opacity:1" fill="#5a83f9" d="M 187.5,151.5 C 199.777,149.757 212.11,148.424 224.5,147.5C 222.825,138.105 220.825,128.772 218.5,119.5C 218.5,117.833 218.5,116.167 218.5,114.5C 235.806,112.236 253.139,110.236 270.5,108.5C 274.143,124.41 277.476,140.41 280.5,156.5C 250.423,159.846 220.423,163.846 190.5,168.5C 189.114,162.905 188.114,157.238 187.5,151.5 Z"/></g>
<g><path style="opacity:1" fill="#adc2fc" d="M 217.5,115.5 C 217.232,117.099 217.566,118.432 218.5,119.5C 220.825,128.772 222.825,138.105 224.5,147.5C 212.11,148.424 199.777,149.757 187.5,151.5C 187.167,151.5 186.833,151.5 186.5,151.5C 184.495,140.816 182.495,130.15 180.5,119.5C 192.869,118.352 205.202,117.018 217.5,115.5 Z"/></g>
<g><path style="opacity:1" fill="#acbf8d" d="M 177.5,109.5 C 177.833,109.5 178.167,109.5 178.5,109.5C 178.433,110.959 178.766,112.292 179.5,113.5C 179.817,117.702 179.483,121.702 178.5,125.5C 178.528,120.138 178.194,114.805 177.5,109.5 Z"/></g>
<g><path style="opacity:1" fill="#9aaa4f" d="M 162.5,95.5 C 164.628,94.3709 166.961,94.2042 169.5,95C 172.805,98.4636 175.472,102.297 177.5,106.5C 177.5,107.5 177.5,108.5 177.5,109.5C 178.194,114.805 178.528,120.138 178.5,125.5C 178.002,128.487 177.502,131.487 177,134.5C 176.617,135.056 176.117,135.389 175.5,135.5C 176.755,130.635 176.755,125.801 175.5,121C 176.804,120.196 177.471,119.029 177.5,117.5C 176.638,113.082 175.471,108.748 174,104.5C 173.751,105.624 173.251,106.624 172.5,107.5C 172.167,107.167 171.833,106.833 171.5,106.5C 172.485,104.902 172.651,103.235 172,101.5C 169.735,99.9196 167.902,98.253 166.5,96.5C 165.432,95.5655 164.099,95.2322 162.5,95.5 Z"/></g>
<g><path style="opacity:1" fill="#85575f" d="M 358.5,131.5 C 353.851,130.705 349.184,130.539 344.5,131C 343.833,131.667 343.167,132.333 342.5,133C 338.514,133.499 334.514,133.666 330.5,133.5C 337.041,132.093 343.708,130.427 350.5,128.5C 353.505,128.905 356.171,129.905 358.5,131.5 Z"/></g>
<g><path style="opacity:1" fill="#aac1fd" d="M 249.5,131.5 C 250.5,131.5 251.5,131.5 252.5,131.5C 253.648,136.43 254.315,141.43 254.5,146.5C 249.787,147.18 245.12,147.18 240.5,146.5C 239.026,142.269 238.026,137.936 237.5,133.5C 241.684,133.149 245.684,132.482 249.5,131.5 Z"/></g>
<g><path style="opacity:1" fill="#a4af5b" d="M 136.5,141.5 C 133.185,139.433 129.518,138.1 125.5,137.5C 124.691,135.929 124.357,134.262 124.5,132.5C 120.926,130.878 117.259,129.545 113.5,128.5C 112.848,129.449 112.514,130.615 112.5,132C 113.694,135.076 114.361,138.243 114.5,141.5C 106.836,126.949 110.169,123.449 124.5,131C 129.134,133.811 133.134,137.311 136.5,141.5 Z"/></g>
<g><path style="opacity:1" fill="#94a62f" d="M 113.5,128.5 C 117.259,129.545 120.926,130.878 124.5,132.5C 124.357,134.262 124.691,135.929 125.5,137.5C 129.518,138.1 133.185,139.433 136.5,141.5C 137.15,143.435 137.483,145.435 137.5,147.5C 136.5,147.5 135.5,147.5 134.5,147.5C 126.086,142.783 119.086,136.449 113.5,128.5 Z"/></g>
<g><path style="opacity:1" fill="#97b7f9" d="M 239.5,169.5 C 220.24,172.151 200.907,174.151 181.5,175.5C 180.975,167.369 179.475,159.369 177,151.5C 175.925,147.23 175.425,142.897 175.5,138.5C 175.5,138.167 175.5,137.833 175.5,137.5C 178.775,141.748 180.441,146.748 180.5,152.5C 182.735,152.795 184.735,152.461 186.5,151.5C 186.833,151.5 187.167,151.5 187.5,151.5C 188.114,157.238 189.114,162.905 190.5,168.5C 220.423,163.846 250.423,159.846 280.5,156.5C 277.476,140.41 274.143,124.41 270.5,108.5C 253.139,110.236 235.806,112.236 218.5,114.5C 218.5,116.167 218.5,117.833 218.5,119.5C 217.566,118.432 217.232,117.099 217.5,115.5C 217.822,113.278 217.155,111.444 215.5,110C 203.443,110.439 191.443,111.606 179.5,113.5C 178.766,112.292 178.433,110.959 178.5,109.5C 208.705,105.449 239.039,101.449 269.5,97.5C 276.997,95.6923 284.497,95.3589 292,96.5C 298.104,117.58 302.937,138.913 306.5,160.5C 302.486,160.334 298.486,160.501 294.5,161C 276.099,164.255 257.766,167.088 239.5,169.5 Z"/></g>
<g><path style="opacity:1" fill="#5b84f7" d="M 277.5,101.5 C 279.766,101.141 281.599,101.808 283,103.5C 285.883,114.748 288.05,126.081 289.5,137.5C 286.14,137.616 282.807,137.949 279.5,138.5C 276.446,126.563 273.78,114.563 271.5,102.5C 273.735,102.795 275.735,102.461 277.5,101.5 Z"/></g>
<g><path style="opacity:1" fill="#798b26" d="M 113.5,128.5 C 119.086,136.449 126.086,142.783 134.5,147.5C 137.138,150.621 140.472,152.788 144.5,154C 142.831,155.669 140.831,156.502 138.5,156.5C 127.887,155.531 119.887,150.531 114.5,141.5C 114.361,138.243 113.694,135.076 112.5,132C 112.514,130.615 112.848,129.449 113.5,128.5 Z"/></g>
<g><path style="opacity:0.361" fill="#d5b7bf" d="M 316.5,142.5 C 317.705,141.314 319.039,141.314 320.5,142.5C 320.631,143.239 320.464,143.906 320,144.5C 319.184,143.177 318.017,142.511 316.5,142.5 Z"/></g>
<g><path style="opacity:1" fill="#9fac51" d="M 136.5,141.5 C 140.904,144.901 144.571,148.901 147.5,153.5C 145.204,153.804 144.871,154.804 146.5,156.5C 143.693,157.657 141.026,157.657 138.5,156.5C 140.831,156.502 142.831,155.669 144.5,154C 140.472,152.788 137.138,150.621 134.5,147.5C 135.5,147.5 136.5,147.5 137.5,147.5C 137.483,145.435 137.15,143.435 136.5,141.5 Z"/></g>
<g><path style="opacity:1" fill="#e8ebef" d="M 293.5,92.5 C 294.492,92.3284 295.158,92.6618 295.5,93.5C 294.903,93.7352 294.57,94.2352 294.5,95C 296.236,101.778 297.736,108.612 299,115.5C 299.857,120.75 301.357,125.083 303.5,128.5C 304.338,128.842 304.672,129.508 304.5,130.5C 303.861,131.097 303.528,131.93 303.5,133C 305.29,141.173 306.957,149.34 308.5,157.5C 308.61,159.374 307.944,160.874 306.5,162C 284.331,165.443 261.998,167.943 239.5,169.5C 257.766,167.088 276.099,164.255 294.5,161C 298.486,160.501 302.486,160.334 306.5,160.5C 302.937,138.913 298.104,117.58 292,96.5C 284.497,95.3589 276.997,95.6923 269.5,97.5C 269.918,96.7784 270.584,96.2784 271.5,96C 279.038,95.2247 286.371,94.058 293.5,92.5 Z"/></g>
<g><path style="opacity:1" fill="#753a44" d="M 360.5,132.5 C 362.129,133.625 363.629,134.959 365,136.5C 368.686,143.886 372.853,150.886 377.5,157.5C 375.048,155.77 372.381,154.27 369.5,153C 370.022,152.439 370.355,151.772 370.5,151C 368.225,148.648 367.059,145.814 367,142.5C 365.989,141.663 364.822,141.33 363.5,141.5C 363.31,138.197 362.31,135.197 360.5,132.5 Z"/></g>
<g><path style="opacity:0.998" fill="#79454c" d="M 152.5,143.5 C 152.5,143.833 152.5,144.167 152.5,144.5C 152.263,145.791 152.596,146.791 153.5,147.5C 153.5,148.167 153.833,148.5 154.5,148.5C 154.5,149.833 154.5,151.167 154.5,152.5C 154.963,155.33 155.629,157.997 156.5,160.5C 156.5,160.833 156.5,161.167 156.5,161.5C 155.833,161.5 155.167,161.5 154.5,161.5C 154.167,160.5 153.5,159.833 152.5,159.5C 150.517,158.529 148.517,157.529 146.5,156.5C 144.871,154.804 145.204,153.804 147.5,153.5C 148.822,153.33 149.989,153.663 151,154.5C 151.167,154 151.333,153.5 151.5,153C 150.274,149.598 149.607,146.098 149.5,142.5C 150.779,141.285 151.779,141.618 152.5,143.5 Z"/></g>
<g><path style="opacity:1" fill="#9a9c57" d="M 155.5,148.5 C 157.094,148.92 158.594,149.586 160,150.5C 160.765,150.43 161.265,150.097 161.5,149.5C 163.5,149.5 165.5,149.5 167.5,149.5C 165.192,151.471 162.858,153.471 160.5,155.5C 160.598,152.752 159.598,152.086 157.5,153.5C 156.833,151.833 156.167,150.167 155.5,148.5 Z"/></g>
<g><path style="opacity:1" fill="#83555b" d="M 154.5,152.5 C 155.391,153.11 156.391,153.443 157.5,153.5C 159.598,152.086 160.598,152.752 160.5,155.5C 157.676,155.989 156.343,157.656 156.5,160.5C 155.629,157.997 154.963,155.33 154.5,152.5 Z"/></g>
<g><path style="opacity:0.71" fill="#eccd88" d="M 152.5,159.5 C 153.5,159.833 154.167,160.5 154.5,161.5C 148.046,163.046 141.379,164.046 134.5,164.5C 132.952,164.821 132.285,165.821 132.5,167.5C 131.833,167.5 131.5,167.833 131.5,168.5C 130.212,166.509 130.712,164.842 133,163.5C 139.622,162.096 146.122,160.763 152.5,159.5 Z"/></g>
<g><path style="opacity:0.376" fill="#c9a9af" d="M 378.5,159.5 C 379.906,159.973 380.573,160.973 380.5,162.5C 379.094,162.027 378.427,161.027 378.5,159.5 Z"/></g>
<g><path style="opacity:1" fill="#6c2912" d="M 154.5,161.5 C 155.167,161.5 155.833,161.5 156.5,161.5C 161.9,163.217 167.566,164.217 173.5,164.5C 173.119,165.931 172.119,166.764 170.5,167C 159.167,167.667 147.833,167.667 136.5,167C 135.244,166.583 134.577,165.75 134.5,164.5C 141.379,164.046 148.046,163.046 154.5,161.5 Z"/></g>
<g><path style="opacity:0.663" fill="#eed398" d="M 156.5,160.5 C 162.896,161.113 169.23,162.113 175.5,163.5C 176.5,163.5 177.5,163.5 178.5,163.5C 178.813,167.042 178.479,170.375 177.5,173.5C 177.664,170.813 177.497,168.146 177,165.5C 175.989,164.663 174.822,164.33 173.5,164.5C 167.566,164.217 161.9,163.217 156.5,161.5C 156.5,161.167 156.5,160.833 156.5,160.5 Z"/></g>
<g><path style="opacity:1" fill="#f78673" d="M 347.5,166.5 C 347.5,167.833 347.5,169.167 347.5,170.5C 348.114,174.135 348.448,177.802 348.5,181.5C 344.552,181.686 340.719,182.352 337,183.5C 337.218,177.553 334.385,174.22 328.5,173.5C 327.307,171.946 326.14,170.279 325,168.5C 324.604,165.343 323.771,162.343 322.5,159.5C 323.626,158.286 324.959,157.286 326.5,156.5C 327.167,156.833 327.833,157.167 328.5,157.5C 329.213,159.776 329.713,162.109 330,164.5C 335.483,168.832 341.316,169.499 347.5,166.5 Z"/></g>
<g><path style="opacity:1" fill="#631424" d="M 358.5,131.5 C 359.167,131.833 359.833,132.167 360.5,132.5C 362.31,135.197 363.31,138.197 363.5,141.5C 364.822,141.33 365.989,141.663 367,142.5C 367.059,145.814 368.225,148.648 370.5,151C 370.355,151.772 370.022,152.439 369.5,153C 372.381,154.27 375.048,155.77 377.5,157.5C 377.335,160.518 377.502,163.518 378,166.5C 382.128,168.155 382.628,170.655 379.5,174C 379.833,174.5 380.167,175 380.5,175.5C 381.251,174.624 381.751,173.624 382,172.5C 382.653,175.218 383.487,177.884 384.5,180.5C 384.333,181.5 384.167,182.5 384,183.5C 383.667,183.167 383.333,182.833 383,182.5C 382.5,190.159 382.334,197.826 382.5,205.5C 381.199,211.468 377.532,215.134 371.5,216.5C 363.996,217.671 357.329,216.004 351.5,211.5C 348.812,208.78 347.478,205.446 347.5,201.5C 349.046,192.542 351.38,183.875 354.5,175.5C 356.992,167.91 357.492,160.244 356,152.5C 354.392,149.618 353.059,146.618 352,143.5C 351.292,142.619 350.458,141.953 349.5,141.5C 349.5,140.833 349.167,140.5 348.5,140.5C 348.5,140.167 348.5,139.833 348.5,139.5C 347.746,137.554 346.412,136.721 344.5,137C 345.373,138.045 346.373,138.878 347.5,139.5C 347.5,139.833 347.5,140.167 347.5,140.5C 347.427,142.027 348.094,143.027 349.5,143.5C 350.268,144.263 350.768,145.263 351,146.5C 351.667,151.167 351.667,155.833 351,160.5C 350.059,162.727 348.892,164.727 347.5,166.5C 341.316,169.499 335.483,168.832 330,164.5C 329.713,162.109 329.213,159.776 328.5,157.5C 327.833,157.167 327.167,156.833 326.5,156.5C 324.959,157.286 323.626,158.286 322.5,159.5C 322.167,159.5 321.833,159.5 321.5,159.5C 314.25,155.117 312.583,149.45 316.5,142.5C 318.017,142.511 319.184,143.177 320,144.5C 320.464,143.906 320.631,143.239 320.5,142.5C 321.912,137.424 325.245,134.424 330.5,133.5C 334.514,133.666 338.514,133.499 342.5,133C 343.167,132.333 343.833,131.667 344.5,131C 349.184,130.539 353.851,130.705 358.5,131.5 Z"/></g>
<g><path style="opacity:0.486" fill="#c095a2" d="M 347.5,140.5 C 347.833,140.5 348.167,140.5 348.5,140.5C 349.167,140.5 349.5,140.833 349.5,141.5C 349.5,142.167 349.5,142.833 349.5,143.5C 348.094,143.027 347.427,142.027 347.5,140.5 Z"/></g>
<g><path style="opacity:0.357" fill="#d8a2ab" d="M 348.5,139.5 C 348.167,139.5 347.833,139.5 347.5,139.5C 346.373,138.878 345.373,138.045 344.5,137C 346.412,136.721 347.746,137.554 348.5,139.5 Z"/></g>
<g><path style="opacity:1" fill="#efb1a2" d="M 321.5,159.5 C 321.833,159.5 322.167,159.5 322.5,159.5C 323.771,162.343 324.604,165.343 325,168.5C 326.14,170.279 327.307,171.946 328.5,173.5C 326.983,173.489 325.816,172.823 325,171.5C 322.715,167.813 321.548,163.813 321.5,159.5 Z"/></g>
<g><path style="opacity:1" fill="#f8d94d" d="M 134.5,164.5 C 134.577,165.75 135.244,166.583 136.5,167C 147.833,167.667 159.167,167.667 170.5,167C 172.119,166.764 173.119,165.931 173.5,164.5C 174.822,164.33 175.989,164.663 177,165.5C 177.497,168.146 177.664,170.813 177.5,173.5C 177.5,174.167 177.5,174.833 177.5,175.5C 175.57,179.373 174.903,183.706 175.5,188.5C 175.468,194.189 175.134,199.855 174.5,205.5C 173.833,206.833 173.167,208.167 172.5,209.5C 172.334,203.824 172.501,198.157 173,192.5C 173.994,184.881 175.161,177.214 176.5,169.5C 161.801,168.802 147.134,168.135 132.5,167.5C 132.285,165.821 132.952,164.821 134.5,164.5 Z"/></g>
<g><path style="opacity:1" fill="#fbdc2c" d="M 132.5,167.5 C 147.134,168.135 161.801,168.802 176.5,169.5C 175.161,177.214 173.994,184.881 173,192.5C 172.501,198.157 172.334,203.824 172.5,209.5C 170.787,210.635 170.12,212.302 170.5,214.5C 168.94,214.481 167.44,214.148 166,213.5C 164.189,214.424 164.355,215.257 166.5,216C 164.256,216.906 161.923,217.406 159.5,217.5C 153.192,216.679 146.859,216.346 140.5,216.5C 137.715,215.917 136.049,214.25 135.5,211.5C 135.5,209.833 135.5,208.167 135.5,206.5C 135.811,201.234 135.145,196.234 133.5,191.5C 133.5,190.833 133.5,190.167 133.5,189.5C 134.113,183.729 133.446,178.396 131.5,173.5C 131.5,171.833 131.5,170.167 131.5,168.5C 131.5,167.833 131.833,167.5 132.5,167.5 Z"/></g>
<g><path style="opacity:1" fill="#f0ece2" d="M 304.5,130.5 C 308.715,146.747 312.215,163.08 315,179.5C 312.834,181.121 310.334,181.955 307.5,182C 292.864,184.162 278.197,185.996 263.5,187.5C 262.551,186.848 261.385,186.514 260,186.5C 252.143,187.391 244.31,188.391 236.5,189.5C 236.795,191.735 236.461,193.735 235.5,195.5C 235.762,194.022 235.429,192.689 234.5,191.5C 217.902,194.134 201.235,195.967 184.5,197C 181.622,190.304 179.288,183.471 177.5,176.5C 177.5,176.167 177.5,175.833 177.5,175.5C 177.5,174.833 177.5,174.167 177.5,173.5C 178.479,170.375 178.813,167.042 178.5,163.5C 177.5,163.5 176.5,163.5 175.5,163.5C 174.47,157.715 172.97,152.049 171,146.5C 170.617,147.056 170.117,147.389 169.5,147.5C 171.255,144.32 173.255,141.32 175.5,138.5C 175.425,142.897 175.925,147.23 177,151.5C 179.475,159.369 180.975,167.369 181.5,175.5C 200.907,174.151 220.24,172.151 239.5,169.5C 261.998,167.943 284.331,165.443 306.5,162C 307.944,160.874 308.61,159.374 308.5,157.5C 306.957,149.34 305.29,141.173 303.5,133C 303.528,131.93 303.861,131.097 304.5,130.5 Z"/></g>
<g><path style="opacity:1" fill="#682b38" d="M 377.5,157.5 C 378.338,157.842 378.672,158.508 378.5,159.5C 378.427,161.027 379.094,162.027 380.5,162.5C 383.871,168.294 385.871,174.627 386.5,181.5C 386.662,183.527 386.495,185.527 386,187.5C 385.105,184.625 384.272,184.292 383.5,186.5C 384.069,189.468 384.403,192.468 384.5,195.5C 384.685,199.141 384.019,202.474 382.5,205.5C 382.334,197.826 382.5,190.159 383,182.5C 383.333,182.833 383.667,183.167 384,183.5C 384.167,182.5 384.333,181.5 384.5,180.5C 383.487,177.884 382.653,175.218 382,172.5C 381.751,173.624 381.251,174.624 380.5,175.5C 380.167,175 379.833,174.5 379.5,174C 382.628,170.655 382.128,168.155 378,166.5C 377.502,163.518 377.335,160.518 377.5,157.5 Z"/></g>
<g><path style="opacity:1" fill="#f9e587" d="M 131.5,173.5 C 133.446,178.396 134.113,183.729 133.5,189.5C 132.335,184.367 131.668,179.034 131.5,173.5 Z"/></g>
<g><path style="opacity:1" fill="#f6e789" d="M 177.5,175.5 C 177.5,175.833 177.5,176.167 177.5,176.5C 177.044,180.664 176.378,184.664 175.5,188.5C 174.903,183.706 175.57,179.373 177.5,175.5 Z"/></g>
<g><path style="opacity:1" fill="#fc9f8e" d="M 347.5,170.5 C 348.841,174.156 350.341,177.823 352,181.5C 352.566,179.277 353.4,177.277 354.5,175.5C 351.38,183.875 349.046,192.542 347.5,201.5C 347.478,205.446 348.812,208.78 351.5,211.5C 347.855,220.798 344.188,230.132 340.5,239.5C 334.441,239.746 328.441,239.413 322.5,238.5C 321.833,237.167 321.167,235.833 320.5,234.5C 317.518,234.963 314.518,235.296 311.5,235.5C 311.167,235.5 310.833,235.5 310.5,235.5C 310.918,234.778 311.584,234.278 312.5,234C 315.146,233.503 317.813,233.336 320.5,233.5C 325.896,238.285 332.229,239.618 339.5,237.5C 337.1,230.575 334.1,223.909 330.5,217.5C 329.387,219.031 327.887,220.031 326,220.5C 324.061,220.046 322.228,219.379 320.5,218.5C 317.376,216.726 314.042,215.393 310.5,214.5C 310.44,213.957 310.107,213.624 309.5,213.5C 308.101,216.054 306.101,217.72 303.5,218.5C 304.625,216.871 305.959,215.371 307.5,214C 306.944,213.617 306.611,213.117 306.5,212.5C 307.674,211.486 308.34,210.153 308.5,208.5C 309.947,207.378 310.947,205.878 311.5,204C 310.906,203.536 310.239,203.369 309.5,203.5C 312.584,202.744 314.251,200.744 314.5,197.5C 319.69,191.314 326.023,186.648 333.5,183.5C 334.641,181.579 334.808,179.579 334,177.5C 331.537,176.968 329.703,175.634 328.5,173.5C 334.385,174.22 337.218,177.553 337,183.5C 340.719,182.352 344.552,181.686 348.5,181.5C 348.448,177.802 348.114,174.135 347.5,170.5 Z"/></g>
<g><path style="opacity:1" fill="#c7beb2" d="M 263.5,187.5 C 260.352,188.616 260.018,189.949 262.5,191.5C 261.032,192.779 260.365,194.446 260.5,196.5C 259.527,194.052 259.194,191.385 259.5,188.5C 252.151,189.002 244.817,189.669 237.5,190.5C 237.813,194.042 237.479,197.375 236.5,200.5C 236.843,198.517 236.176,197.183 234.5,196.5C 234.5,195.833 234.833,195.5 235.5,195.5C 236.461,193.735 236.795,191.735 236.5,189.5C 244.31,188.391 252.143,187.391 260,186.5C 261.385,186.514 262.551,186.848 263.5,187.5 Z"/></g>
<g><path style="opacity:0.999" fill="#f4ede3" d="M 260.5,196.5 C 265.16,195.833 269.826,195.667 274.5,196C 280.188,197.848 285.855,199.682 291.5,201.5C 291.5,202.833 291.5,204.167 291.5,205.5C 272.173,208.166 252.84,210.833 233.5,213.5C 227.435,211.979 221.435,210.146 215.5,208C 213.893,206.951 213.227,205.451 213.5,203.5C 221.15,202.407 228.816,201.407 236.5,200.5C 237.479,197.375 237.813,194.042 237.5,190.5C 244.817,189.669 252.151,189.002 259.5,188.5C 259.194,191.385 259.527,194.052 260.5,196.5 Z"/></g>
<g><path style="opacity:1" fill="#91656e" d="M 286.5,192.5 C 279.183,191.882 271.849,191.549 264.5,191.5C 271.882,189.163 279.215,189.497 286.5,192.5 Z"/></g>
<g><path style="opacity:1" fill="#dde9fd" d="M 405.5,188.5 C 404.233,187.913 403.233,187.913 402.5,188.5C 407.711,194.554 410.877,201.554 412,209.5C 413.407,222.764 412.241,235.764 408.5,248.5C 408.747,249.713 409.414,250.38 410.5,250.5C 409.87,252.75 408.87,254.75 407.5,256.5C 407.435,251.304 406.768,251.304 405.5,256.5C 401.318,258.849 399.151,262.515 399,267.5C 396.872,270.63 394.372,273.463 391.5,276C 387.239,278.13 382.906,280.297 378.5,282.5C 377.702,282.043 377.369,281.376 377.5,280.5C 379.43,273.911 378.43,267.911 374.5,262.5C 374.5,262.167 374.5,261.833 374.5,261.5C 379.095,261.693 381.095,259.527 380.5,255C 379.388,247.828 378.221,240.661 377,233.5C 375.009,227.861 373.175,222.195 371.5,216.5C 377.532,215.134 381.199,211.468 382.5,205.5C 384.019,202.474 384.685,199.141 384.5,195.5C 384.403,192.468 384.069,189.468 383.5,186.5C 384.272,184.292 385.105,184.625 386,187.5C 386.495,185.527 386.662,183.527 386.5,181.5C 394.159,180.16 400.493,182.494 405.5,188.5 Z"/></g>
<g><path style="opacity:0.792" fill="#f9eb96" d="M 133.5,191.5 C 135.145,196.234 135.811,201.234 135.5,206.5C 134.407,201.694 133.741,196.694 133.5,191.5 Z"/></g>
<g><path style="opacity:0.106" fill="#f2dcd2" d="M 309.5,203.5 C 310.239,203.369 310.906,203.536 311.5,204C 310.947,205.878 309.947,207.378 308.5,208.5C 305.236,208.274 304.236,206.774 305.5,204C 306.793,203.51 308.127,203.343 309.5,203.5 Z"/></g>
<g><path style="opacity:1" fill="#641926" d="M 262.5,191.5 C 263.167,191.5 263.833,191.5 264.5,191.5C 271.849,191.549 279.183,191.882 286.5,192.5C 295.886,193.911 305.22,195.577 314.5,197.5C 314.251,200.744 312.584,202.744 309.5,203.5C 308.127,203.343 306.793,203.51 305.5,204C 304.236,206.774 305.236,208.274 308.5,208.5C 308.34,210.153 307.674,211.486 306.5,212.5C 301.76,210.865 296.927,209.532 292,208.5C 261.979,212.476 232.145,217.476 202.5,223.5C 208.03,225.899 213.696,227.899 219.5,229.5C 220.391,230.11 221.391,230.443 222.5,230.5C 223.274,231.147 224.274,231.48 225.5,231.5C 230.119,230.442 234.786,229.776 239.5,229.5C 238.306,230.777 236.64,231.444 234.5,231.5C 230.837,231.944 227.171,232.278 223.5,232.5C 218.156,232.666 212.823,232.499 207.5,232C 199.738,229.317 191.738,227.817 183.5,227.5C 177.755,227.354 172.422,226.021 167.5,223.5C 164.833,222.894 162.166,222.061 159.5,221C 161.974,220.963 163.974,220.13 165.5,218.5C 167.604,217.088 169.937,216.088 172.5,215.5C 172.5,213.5 172.5,211.5 172.5,209.5C 173.167,208.167 173.833,206.833 174.5,205.5C 194.369,201.856 214.369,198.856 234.5,196.5C 236.176,197.183 236.843,198.517 236.5,200.5C 228.816,201.407 221.15,202.407 213.5,203.5C 213.227,205.451 213.893,206.951 215.5,208C 221.435,210.146 227.435,211.979 233.5,213.5C 252.84,210.833 272.173,208.166 291.5,205.5C 291.5,204.167 291.5,202.833 291.5,201.5C 285.855,199.682 280.188,197.848 274.5,196C 269.826,195.667 265.16,195.833 260.5,196.5C 260.365,194.446 261.032,192.779 262.5,191.5 Z"/></g>
<g><path style="opacity:1" fill="#70201b" d="M 135.5,211.5 C 136.049,214.25 137.715,215.917 140.5,216.5C 142.277,217.6 144.277,218.434 146.5,219C 152.85,219.524 159.184,219.358 165.5,218.5C 163.974,220.13 161.974,220.963 159.5,221C 162.166,222.061 164.833,222.894 167.5,223.5C 163.486,223.666 159.486,223.499 155.5,223C 143.076,220.631 130.743,218.131 118.5,215.5C 118.5,215.167 118.5,214.833 118.5,214.5C 123.959,213.049 129.626,212.049 135.5,211.5 Z"/></g>
<g><path style="opacity:1" fill="#f4cd3d" d="M 172.5,209.5 C 172.5,211.5 172.5,213.5 172.5,215.5C 169.937,216.088 167.604,217.088 165.5,218.5C 159.184,219.358 152.85,219.524 146.5,219C 144.277,218.434 142.277,217.6 140.5,216.5C 146.859,216.346 153.192,216.679 159.5,217.5C 161.923,217.406 164.256,216.906 166.5,216C 164.355,215.257 164.189,214.424 166,213.5C 167.44,214.148 168.94,214.481 170.5,214.5C 170.12,212.302 170.787,210.635 172.5,209.5 Z"/></g>
<g><path style="opacity:1" fill="#f6e8df" d="M 306.5,212.5 C 306.611,213.117 306.944,213.617 307.5,214C 305.959,215.371 304.625,216.871 303.5,218.5C 292.457,219.887 281.457,221.554 270.5,223.5C 267.426,223.127 264.426,222.461 261.5,221.5C 259.727,220.108 257.727,218.941 255.5,218C 247.387,217.24 239.387,217.906 231.5,220C 229.991,223.669 231.324,225.169 235.5,224.5C 240.421,224.862 245.087,225.862 249.5,227.5C 245.922,227.549 242.589,228.215 239.5,229.5C 234.786,229.776 230.119,230.442 225.5,231.5C 224.274,231.48 223.274,231.147 222.5,230.5C 229.447,229.153 236.447,227.986 243.5,227C 239.137,226.71 234.804,226.21 230.5,225.5C 227.99,224.658 227.323,223.158 228.5,221C 223.885,221.708 219.218,222.541 214.5,223.5C 213.479,224.002 213.312,224.668 214,225.5C 215.441,226.26 216.941,226.926 218.5,227.5C 219.298,227.957 219.631,228.624 219.5,229.5C 213.696,227.899 208.03,225.899 202.5,223.5C 232.145,217.476 261.979,212.476 292,208.5C 296.927,209.532 301.76,210.865 306.5,212.5 Z"/></g>
<g><path style="opacity:1" fill="#ec9b8c" d="M 261.5,221.5 C 251.857,218.872 242.19,218.872 232.5,221.5C 233.34,222.735 234.34,223.735 235.5,224.5C 231.324,225.169 229.991,223.669 231.5,220C 239.387,217.906 247.387,217.24 255.5,218C 257.727,218.941 259.727,220.108 261.5,221.5 Z"/></g>
<g><path style="opacity:1" fill="#dcbfcf" d="M 351.5,211.5 C 357.329,216.004 363.996,217.671 371.5,216.5C 373.175,222.195 375.009,227.861 377,233.5C 378.221,240.661 379.388,247.828 380.5,255C 381.095,259.527 379.095,261.693 374.5,261.5C 368.506,262.164 362.506,262.831 356.5,263.5C 353.975,263.497 351.641,263.163 349.5,262.5C 346.207,254.919 343.207,247.252 340.5,239.5C 344.188,230.132 347.855,220.798 351.5,211.5 Z"/></g>
<g><path style="opacity:1" fill="#762e2a" d="M 303.5,218.5 C 303.672,219.492 303.338,220.158 302.5,220.5C 292.088,221.291 281.754,222.625 271.5,224.5C 270.833,224.5 270.5,224.167 270.5,223.5C 281.457,221.554 292.457,219.887 303.5,218.5 Z"/></g>
<g><path style="opacity:1" fill="#fc816e" d="M 320.5,233.5 C 320.538,230.193 319.872,227.026 318.5,224C 319.32,222.2 319.986,220.366 320.5,218.5C 322.228,219.379 324.061,220.046 326,220.5C 327.887,220.031 329.387,219.031 330.5,217.5C 334.1,223.909 337.1,230.575 339.5,237.5C 332.229,239.618 325.896,238.285 320.5,233.5 Z"/></g>
<g><path style="opacity:1" fill="#f98872" d="M 310.5,214.5 C 310.062,214.435 309.728,214.601 309.5,215C 312.35,217.682 315.016,220.516 317.5,223.5C 314.476,227.518 311.476,231.518 308.5,235.5C 305.497,238.088 303.664,241.421 303,245.5C 296.574,247.968 290.074,247.968 283.5,245.5C 280.477,244.572 277.643,243.238 275,241.5C 272.901,242.287 270.734,242.62 268.5,242.5C 269.681,240.933 271.347,240.099 273.5,240C 267.779,235.279 261.779,230.946 255.5,227C 253.512,226.82 251.512,226.986 249.5,227.5C 245.087,225.862 240.421,224.862 235.5,224.5C 234.34,223.735 233.34,222.735 232.5,221.5C 242.19,218.872 251.857,218.872 261.5,221.5C 264.426,222.461 267.426,223.127 270.5,223.5C 270.5,224.167 270.833,224.5 271.5,224.5C 278.635,227.31 285.802,230.31 293,233.5C 296.693,229.627 299.86,225.294 302.5,220.5C 303.338,220.158 303.672,219.492 303.5,218.5C 306.101,217.72 308.101,216.054 309.5,213.5C 310.107,213.624 310.44,213.957 310.5,214.5 Z"/></g>
<g><path style="opacity:0.171" fill="#f9d0c8" d="M 116.5,218.5 C 116.237,222.6 116.57,226.6 117.5,230.5C 116.206,228.952 115.539,226.952 115.5,224.5C 115.505,222.304 115.838,220.304 116.5,218.5 Z"/></g>
<g><path style="opacity:1" fill="#f5efe5" d="M 222.5,230.5 C 221.391,230.443 220.391,230.11 219.5,229.5C 219.631,228.624 219.298,227.957 218.5,227.5C 216.941,226.926 215.441,226.26 214,225.5C 213.312,224.668 213.479,224.002 214.5,223.5C 219.218,222.541 223.885,221.708 228.5,221C 227.323,223.158 227.99,224.658 230.5,225.5C 234.804,226.21 239.137,226.71 243.5,227C 236.447,227.986 229.447,229.153 222.5,230.5 Z"/></g>
<g><path style="opacity:1" fill="#b42d1e" d="M 302.5,220.5 C 299.86,225.294 296.693,229.627 293,233.5C 285.802,230.31 278.635,227.31 271.5,224.5C 281.754,222.625 292.088,221.291 302.5,220.5 Z"/></g>
<g><path style="opacity:1" fill="#b9c8ec" d="M 405.5,188.5 C 411.492,195.295 414.658,203.295 415,212.5C 416.438,225.533 414.938,238.199 410.5,250.5C 409.414,250.38 408.747,249.713 408.5,248.5C 412.241,235.764 413.407,222.764 412,209.5C 410.877,201.554 407.711,194.554 402.5,188.5C 403.233,187.913 404.233,187.913 405.5,188.5 Z"/></g>
<g><path style="opacity:1" fill="#c73626" d="M 310.5,214.5 C 314.042,215.393 317.376,216.726 320.5,218.5C 319.986,220.366 319.32,222.2 318.5,224C 319.872,227.026 320.538,230.193 320.5,233.5C 317.813,233.336 315.146,233.503 312.5,234C 311.584,234.278 310.918,234.778 310.5,235.5C 309.833,235.5 309.167,235.5 308.5,235.5C 311.476,231.518 314.476,227.518 317.5,223.5C 315.016,220.516 312.35,217.682 309.5,215C 309.728,214.601 310.062,214.435 310.5,214.5 Z"/></g>
<g><path style="opacity:1" fill="#b04033" d="M 118.5,214.5 C 118.5,214.833 118.5,215.167 118.5,215.5C 117.353,219.646 117.186,223.98 118,228.5C 118.5,229 119,229.5 119.5,230C 127.607,231.634 135.773,232.8 144,233.5C 148.545,232.855 152.045,234.521 154.5,238.5C 148.614,237.61 142.947,236.277 137.5,234.5C 136.5,233.167 135.5,233.167 134.5,234.5C 131.546,233.729 128.546,233.062 125.5,232.5C 122.782,231.957 120.115,231.291 117.5,230.5C 116.57,226.6 116.237,222.6 116.5,218.5C 116.157,216.517 116.824,215.183 118.5,214.5 Z"/></g>
<g><path style="opacity:0.18" fill="#eeada8" d="M 137.5,234.5 C 136.508,234.328 135.842,234.662 135.5,235.5C 134.833,235.5 134.5,235.167 134.5,234.5C 135.5,233.167 136.5,233.167 137.5,234.5 Z"/></g>
<g><path style="opacity:1" fill="#c56859" d="M 155.5,238.5 C 160.64,237.91 165.307,238.91 169.5,241.5C 164.578,241.13 159.911,240.13 155.5,238.5 Z"/></g>
<g><path style="opacity:1" fill="#dbe6fa" d="M 320.5,234.5 C 321.167,235.833 321.833,237.167 322.5,238.5C 325.497,245.829 328.497,253.162 331.5,260.5C 321.997,260.905 312.664,261.572 303.5,262.5C 294.142,262.459 285.142,264.126 276.5,267.5C 276.998,264.513 277.498,261.513 278,258.5C 279.87,254.104 281.703,249.771 283.5,245.5C 290.074,247.968 296.574,247.968 303,245.5C 303.664,241.421 305.497,238.088 308.5,235.5C 309.167,235.5 309.833,235.5 310.5,235.5C 310.833,235.5 311.167,235.5 311.5,235.5C 311.611,236.117 311.944,236.617 312.5,237C 315.146,237.497 317.813,237.664 320.5,237.5C 320.5,236.5 320.5,235.5 320.5,234.5 Z"/></g>
<g><path style="opacity:1" fill="#ba291a" d="M 118.5,215.5 C 130.743,218.131 143.076,220.631 155.5,223C 159.486,223.499 163.486,223.666 167.5,223.5C 172.422,226.021 177.755,227.354 183.5,227.5C 196.498,232.355 209.832,234.022 223.5,232.5C 227.171,232.278 230.837,231.944 234.5,231.5C 236.64,231.444 238.306,230.777 239.5,229.5C 242.589,228.215 245.922,227.549 249.5,227.5C 251.512,226.986 253.512,226.82 255.5,227C 261.779,230.946 267.779,235.279 273.5,240C 271.347,240.099 269.681,240.933 268.5,242.5C 268.167,242.5 267.833,242.5 267.5,242.5C 261.794,242.171 256.128,242.505 250.5,243.5C 240.507,245.399 230.507,247.232 220.5,249C 219.944,249.383 219.611,249.883 219.5,250.5C 219.167,250.5 218.833,250.5 218.5,250.5C 216.821,250.285 215.821,250.952 215.5,252.5C 215.167,252.5 214.833,252.5 214.5,252.5C 212.063,250.561 209.397,250.227 206.5,251.5C 206.167,250.833 205.833,250.167 205.5,249.5C 205.586,248.504 205.252,247.671 204.5,247C 198.851,246.243 193.184,245.743 187.5,245.5C 187.167,245.5 186.833,245.5 186.5,245.5C 186.119,244.069 185.119,243.236 183.5,243C 180.518,242.502 177.518,242.335 174.5,242.5C 172.585,242.784 170.919,242.451 169.5,241.5C 165.307,238.91 160.64,237.91 155.5,238.5C 155.167,238.5 154.833,238.5 154.5,238.5C 152.045,234.521 148.545,232.855 144,233.5C 135.773,232.8 127.607,231.634 119.5,230C 119,229.5 118.5,229 118,228.5C 117.186,223.98 117.353,219.646 118.5,215.5 Z"/></g>
<g><path style="opacity:1" fill="#79161a" d="M 183.5,227.5 C 191.738,227.817 199.738,229.317 207.5,232C 212.823,232.499 218.156,232.666 223.5,232.5C 209.832,234.022 196.498,232.355 183.5,227.5 Z"/></g>
<g><path style="opacity:1" fill="#c36255" d="M 174.5,242.5 C 177.518,242.335 180.518,242.502 183.5,243C 185.119,243.236 186.119,244.069 186.5,245.5C 182.239,245.102 178.239,244.102 174.5,242.5 Z"/></g>
<g><path style="opacity:0.486" fill="#bb979e" d="M 139.5,244.5 C 140.906,244.973 141.573,245.973 141.5,247.5C 140.094,247.027 139.427,246.027 139.5,244.5 Z"/></g>
<g><path style="opacity:1" fill="#c96f5f" d="M 267.5,242.5 C 251.705,245.617 235.705,248.283 219.5,250.5C 219.611,249.883 219.944,249.383 220.5,249C 230.507,247.232 240.507,245.399 250.5,243.5C 256.128,242.505 261.794,242.171 267.5,242.5 Z"/></g>
<g><path style="opacity:1" fill="#bf5b52" d="M 187.5,245.5 C 193.184,245.743 198.851,246.243 204.5,247C 205.252,247.671 205.586,248.504 205.5,249.5C 199.302,248.53 193.302,247.196 187.5,245.5 Z"/></g>
<g><path style="opacity:1" fill="#d99ba0" d="M 322.5,238.5 C 328.441,239.413 334.441,239.746 340.5,239.5C 343.207,247.252 346.207,254.919 349.5,262.5C 343.466,262.114 337.466,261.447 331.5,260.5C 328.497,253.162 325.497,245.829 322.5,238.5 Z"/></g>
<g><path style="opacity:0.255" fill="#f8bcbc" d="M 218.5,250.5 C 217.71,251.401 216.71,252.068 215.5,252.5C 215.821,250.952 216.821,250.285 218.5,250.5 Z"/></g>
<g><path style="opacity:0.302" fill="#ccb0b4" d="M 146.5,257.5 C 147.906,257.973 148.573,258.973 148.5,260.5C 147.094,260.027 146.427,259.027 146.5,257.5 Z"/></g>
<g><path style="opacity:1" fill="#8c9cf0" d="M 303.5,262.5 C 324.87,262.609 346.203,263.442 367.5,265C 370.727,269.241 372.227,274.074 372,279.5C 373.221,273.483 372.055,267.983 368.5,263C 370.473,262.505 372.473,262.338 374.5,262.5C 378.43,267.911 379.43,273.911 377.5,280.5C 376.069,281.78 375.402,283.447 375.5,285.5C 371.167,285.5 366.833,285.5 362.5,285.5C 352.527,286.366 342.527,286.699 332.5,286.5C 332.586,285.504 332.252,284.671 331.5,284C 326.915,282.415 322.248,281.082 317.5,280C 308.227,280.283 299.227,280.449 290.5,280.5C 282.673,280.021 279.339,276.021 280.5,268.5C 288.538,267.229 296.205,265.229 303.5,262.5 Z"/></g>
<g><path style="opacity:1" fill="#9ea2e2" d="M 331.5,260.5 C 337.466,261.447 343.466,262.114 349.5,262.5C 351.641,263.163 353.975,263.497 356.5,263.5C 362.506,262.831 368.506,262.164 374.5,261.5C 374.5,261.833 374.5,262.167 374.5,262.5C 372.473,262.338 370.473,262.505 368.5,263C 372.055,267.983 373.221,273.483 372,279.5C 372.227,274.074 370.727,269.241 367.5,265C 346.203,263.442 324.87,262.609 303.5,262.5C 312.664,261.572 321.997,260.905 331.5,260.5 Z"/></g>
<g><path style="opacity:1" fill="#651b29" d="M 188.5,272.5 C 190.843,269.793 193.177,267.126 195.5,264.5C 197.682,263.7 199.349,262.2 200.5,260C 201.793,259.51 203.127,259.343 204.5,259.5C 204.343,258.127 204.51,256.793 205,255.5C 205.497,258.146 205.664,260.813 205.5,263.5C 203.799,263.966 202.299,263.966 201,263.5C 200.575,267.306 198.408,269.14 194.5,269C 198.5,270 198.5,271 194.5,272C 194.833,272.333 195.167,272.667 195.5,273C 193.833,273.333 192.167,273.667 190.5,274C 192.107,275.049 192.773,276.549 192.5,278.5C 190.25,278.819 188.25,278.319 186.5,277C 187.582,275.67 188.249,274.17 188.5,272.5 Z"/></g>
<g><path style="opacity:1" fill="#6f2d38" d="M 125.5,232.5 C 128.546,233.062 131.546,233.729 134.5,234.5C 134.5,235.167 134.833,235.5 135.5,235.5C 137.601,238.127 138.934,241.127 139.5,244.5C 139.427,246.027 140.094,247.027 141.5,247.5C 143.674,250.515 145.341,253.849 146.5,257.5C 146.427,259.027 147.094,260.027 148.5,260.5C 154.07,270.637 159.403,280.971 164.5,291.5C 163.5,291.5 162.5,291.5 161.5,291.5C 160.882,288.602 159.715,285.935 158,283.5C 156.329,286.862 156.996,289.862 160,292.5C 160.497,294.81 160.663,297.143 160.5,299.5C 148.597,277.363 136.93,255.03 125.5,232.5 Z"/></g>
<g><path style="opacity:1" fill="#7a3c46" d="M 214.5,252.5 C 212.3,256.88 209.467,260.88 206,264.5C 200.301,271.03 194.467,277.363 188.5,283.5C 188.55,281.41 187.55,280.077 185.5,279.5C 183.64,280.26 181.973,281.26 180.5,282.5C 182.794,278.873 185.46,275.539 188.5,272.5C 188.249,274.17 187.582,275.67 186.5,277C 188.25,278.319 190.25,278.819 192.5,278.5C 192.773,276.549 192.107,275.049 190.5,274C 192.167,273.667 193.833,273.333 195.5,273C 195.167,272.667 194.833,272.333 194.5,272C 198.5,271 198.5,270 194.5,269C 198.408,269.14 200.575,267.306 201,263.5C 202.299,263.966 203.799,263.966 205.5,263.5C 205.664,260.813 205.497,258.146 205,255.5C 204.51,256.793 204.343,258.127 204.5,259.5C 203.127,259.343 201.793,259.51 200.5,260C 199.349,262.2 197.682,263.7 195.5,264.5C 198.821,259.848 202.487,255.515 206.5,251.5C 209.397,250.227 212.063,250.561 214.5,252.5 Z"/></g>
<g><path style="opacity:1" fill="#bccef2" d="M 407.5,256.5 C 402.147,268.868 394.147,279.202 383.5,287.5C 381.2,285.798 378.533,285.132 375.5,285.5C 375.402,283.447 376.069,281.78 377.5,280.5C 377.369,281.376 377.702,282.043 378.5,282.5C 382.906,280.297 387.239,278.13 391.5,276C 394.372,273.463 396.872,270.63 399,267.5C 399.151,262.515 401.318,258.849 405.5,256.5C 406.768,251.304 407.435,251.304 407.5,256.5 Z"/></g>
<g><path style="opacity:1" fill="#621424" d="M 188.5,283.5 C 187.167,283.5 185.833,283.5 184.5,283.5C 184.5,284.833 184.5,286.167 184.5,287.5C 182.833,287.5 181.167,287.5 179.5,287.5C 179.739,293.12 178.406,293.787 175.5,289.5C 176.925,288.078 177.925,286.411 178.5,284.5C 178.833,283.5 179.5,282.833 180.5,282.5C 181.973,281.26 183.64,280.26 185.5,279.5C 187.55,280.077 188.55,281.41 188.5,283.5 Z"/></g>
<g><path style="opacity:1" fill="#91a8f5" d="M 303.5,262.5 C 296.205,265.229 288.538,267.229 280.5,268.5C 279.339,276.021 282.673,280.021 290.5,280.5C 299.227,280.449 308.227,280.283 317.5,280C 322.248,281.082 326.915,282.415 331.5,284C 332.252,284.671 332.586,285.504 332.5,286.5C 321.162,286.333 309.828,286.5 298.5,287C 297.748,287.671 297.414,288.504 297.5,289.5C 286.344,288.013 279.677,281.679 277.5,270.5C 277.5,269.167 276.833,268.5 275.5,268.5C 275.5,267.833 275.833,267.5 276.5,267.5C 285.142,264.126 294.142,262.459 303.5,262.5 Z"/></g>
<g><path style="opacity:1" fill="#424bdc" d="M 277.5,270.5 C 279.677,281.679 286.344,288.013 297.5,289.5C 297.5,290.833 297.5,292.167 297.5,293.5C 297.5,293.833 297.5,294.167 297.5,294.5C 294.5,294.833 293.167,293.5 293.5,290.5C 292.5,290.5 291.5,290.5 290.5,290.5C 290.542,298.338 289.875,306.005 288.5,313.5C 286.72,314.99 286.054,316.99 286.5,319.5C 283.431,321.146 281.931,323.813 282,327.5C 281.282,326.549 280.449,326.383 279.5,327C 280.435,329.381 280.768,331.881 280.5,334.5C 277.609,335.403 274.609,335.736 271.5,335.5C 270.5,335.5 269.5,335.5 268.5,335.5C 268.5,335.167 268.5,334.833 268.5,334.5C 267.071,333.766 266.071,332.599 265.5,331C 266.394,327.224 266.728,323.39 266.5,319.5C 266.342,316.098 266.676,312.764 267.5,309.5C 268.5,309.5 269.5,309.5 270.5,309.5C 271.982,297.999 272.815,286.332 273,274.5C 273.748,272.249 275.248,270.916 277.5,270.5 Z"/></g>
<g><path style="opacity:1" fill="#97a3d8" d="M 362.5,285.5 C 361.167,286.167 359.833,286.833 358.5,287.5C 356.167,287.5 353.833,287.5 351.5,287.5C 334.163,287.333 316.83,287.5 299.5,288C 298.891,289.948 298.224,291.782 297.5,293.5C 297.5,292.167 297.5,290.833 297.5,289.5C 297.414,288.504 297.748,287.671 298.5,287C 309.828,286.5 321.162,286.333 332.5,286.5C 342.527,286.699 352.527,286.366 362.5,285.5 Z"/></g>
<g><path style="opacity:0.69" fill="#b8969b" d="M 178.5,284.5 C 177.925,286.411 176.925,288.078 175.5,289.5C 175.167,289.5 174.833,289.5 174.5,289.5C 175.08,287.251 176.413,285.585 178.5,284.5 Z"/></g>
<g><path style="opacity:1" fill="#8282d4" d="M 297.5,294.5 C 297.715,296.179 297.048,297.179 295.5,297.5C 294.196,296.013 293.03,294.346 292,292.5C 291.876,299.81 290.709,306.81 288.5,313.5C 289.875,306.005 290.542,298.338 290.5,290.5C 291.5,290.5 292.5,290.5 293.5,290.5C 293.167,293.5 294.5,294.833 297.5,294.5 Z"/></g>
<g><path style="opacity:1" fill="#e9e4db" d="M 351.5,287.5 C 338.327,288.167 324.994,288.833 311.5,289.5C 315.168,290.04 316.668,292.04 316,295.5C 315.107,294.289 314.274,294.289 313.5,295.5C 317.618,296.752 319.951,295.085 320.5,290.5C 322.944,292.895 325.61,295.062 328.5,297C 326.217,297.291 324.05,296.791 322,295.5C 321.5,295.833 321,296.167 320.5,296.5C 321.515,297.681 322.681,298.681 324,299.5C 331.288,300.641 338.454,301.641 345.5,302.5C 339.5,302.5 333.5,302.5 327.5,302.5C 326.756,306.119 326.423,309.785 326.5,313.5C 325.662,313.158 325.328,312.492 325.5,311.5C 324.465,307.561 323.131,303.728 321.5,300C 316.859,299.76 312.692,298.26 309,295.5C 307.779,296.272 306.779,297.272 306,298.5C 305.71,300.952 305.044,303.285 304,305.5C 303.398,308.221 303.565,310.887 304.5,313.5C 303.603,312.402 302.77,312.402 302,313.5C 292.33,341.178 282.663,368.844 273,396.5C 271.159,399.081 269.326,399.081 267.5,396.5C 268.909,393.273 269.909,389.94 270.5,386.5C 269.5,386.5 268.5,386.5 267.5,386.5C 267.5,386.167 267.5,385.833 267.5,385.5C 268.833,385.5 270.167,385.5 271.5,385.5C 271.5,383.5 271.5,381.5 271.5,379.5C 273.775,374.784 275.608,369.784 277,364.5C 283.057,342.158 289.224,319.824 295.5,297.5C 297.048,297.179 297.715,296.179 297.5,294.5C 297.5,294.167 297.5,293.833 297.5,293.5C 298.224,291.782 298.891,289.948 299.5,288C 316.83,287.5 334.163,287.333 351.5,287.5 Z"/></g>
<g><path style="opacity:1" fill="#7a3e47" d="M 188.5,283.5 C 183.54,290.461 178.206,297.127 172.5,303.5C 173.342,300.846 173.842,298.179 174,295.5C 172.51,294.272 171.01,294.272 169.5,295.5C 170.419,292.911 172.086,290.911 174.5,289.5C 174.833,289.5 175.167,289.5 175.5,289.5C 178.406,293.787 179.739,293.12 179.5,287.5C 181.167,287.5 182.833,287.5 184.5,287.5C 184.5,286.167 184.5,284.833 184.5,283.5C 185.833,283.5 187.167,283.5 188.5,283.5 Z"/></g>
<g><path style="opacity:1" fill="#6767d3" d="M 275.5,268.5 C 276.833,268.5 277.5,269.167 277.5,270.5C 275.248,270.916 273.748,272.249 273,274.5C 272.815,286.332 271.982,297.999 270.5,309.5C 269.5,309.5 268.5,309.5 267.5,309.5C 269.068,298.218 270.235,286.884 271,275.5C 271.516,272.453 273.016,270.12 275.5,268.5 Z"/></g>
<g><path style="opacity:1" fill="#f3eee2" d="M 401.5,378.5 C 400.662,378.158 400.328,377.492 400.5,376.5C 401.573,375.749 401.74,374.749 401,373.5C 393,351.5 385,329.5 377,307.5C 376.601,307.728 376.435,308.062 376.5,308.5C 374.685,304.377 372.685,300.377 370.5,296.5C 373.209,294.868 372.875,294.368 369.5,295C 366.167,296.333 362.833,297.667 359.5,299C 360.448,299.483 361.448,299.649 362.5,299.5C 363.319,306.233 364.319,312.9 365.5,319.5C 363.39,313.399 361.723,307.066 360.5,300.5C 355.537,301.426 350.537,302.092 345.5,302.5C 338.454,301.641 331.288,300.641 324,299.5C 322.681,298.681 321.515,297.681 320.5,296.5C 321,296.167 321.5,295.833 322,295.5C 324.05,296.791 326.217,297.291 328.5,297C 325.61,295.062 322.944,292.895 320.5,290.5C 319.951,295.085 317.618,296.752 313.5,295.5C 314.274,294.289 315.107,294.289 316,295.5C 316.668,292.04 315.168,290.04 311.5,289.5C 324.994,288.833 338.327,288.167 351.5,287.5C 353.833,287.5 356.167,287.5 358.5,287.5C 365.74,286.729 372.907,286.729 380,287.5C 389.558,323.84 399.725,360.007 410.5,396C 409.517,396.591 408.85,396.257 408.5,395C 406.495,388.648 404.161,383.148 401.5,378.5 Z"/></g>
<g><path style="opacity:0.663" fill="#b6959b" d="M 162.5,303.5 C 161.92,305.749 160.587,307.415 158.5,308.5C 159.08,306.251 160.413,304.585 162.5,303.5 Z"/></g>
<g><path style="opacity:0.745" fill="#be9aa2" d="M 156.5,310.5 C 156.262,312.404 155.262,313.738 153.5,314.5C 153.738,312.596 154.738,311.262 156.5,310.5 Z"/></g>
<g><path style="opacity:1" fill="#4c50cf" d="M 325.5,311.5 C 323.716,312.574 322.549,314.24 322,316.5C 321.783,311.447 321.283,306.447 320.5,301.5C 317.527,300.491 314.527,300.491 311.5,301.5C 311.539,299.641 310.706,298.308 309,297.5C 306.415,300.087 305.915,303.087 307.5,306.5C 309.071,307.309 310.738,307.643 312.5,307.5C 312.714,309.144 312.38,310.644 311.5,312C 309.956,311.513 308.29,311.013 306.5,310.5C 306.5,312.167 306.5,313.833 306.5,315.5C 307.833,315.5 309.167,315.5 310.5,315.5C 310.5,317.833 310.5,320.167 310.5,322.5C 310.167,322.5 309.833,322.5 309.5,322.5C 307.595,319.696 305.929,316.696 304.5,313.5C 303.565,310.887 303.398,308.221 304,305.5C 305.044,303.285 305.71,300.952 306,298.5C 306.779,297.272 307.779,296.272 309,295.5C 312.692,298.26 316.859,299.76 321.5,300C 323.131,303.728 324.465,307.561 325.5,311.5 Z"/></g>
<g><path style="opacity:1" fill="#8181d7" d="M 288.5,313.5 C 288.405,315.786 287.738,317.786 286.5,319.5C 286.054,316.99 286.72,314.99 288.5,313.5 Z"/></g>
<g><path style="opacity:1" fill="#706dd4" d="M 326.5,314.5 C 328.258,317.854 329.258,321.521 329.5,325.5C 328.25,325.423 327.417,324.756 327,323.5C 326.502,320.518 326.335,317.518 326.5,314.5 Z"/></g>
<g><path style="opacity:1" fill="#736fd8" d="M 286.5,319.5 C 285.296,324.895 283.296,329.895 280.5,334.5C 280.768,331.881 280.435,329.381 279.5,327C 280.449,326.383 281.282,326.549 282,327.5C 281.931,323.813 283.431,321.146 286.5,319.5 Z"/></g>
<g><path style="opacity:1" fill="#7e7bd8" d="M 309.5,322.5 C 309.833,322.5 310.167,322.5 310.5,322.5C 312.693,324.522 313.693,327.189 313.5,330.5C 311.659,328.151 310.326,325.485 309.5,322.5 Z"/></g>
<g><path style="opacity:1" fill="#e1dac4" d="M 370.5,296.5 C 373.917,323.412 377.917,350.412 382.5,377.5C 381.68,379.111 380.346,379.778 378.5,379.5C 373.737,359.588 369.404,339.588 365.5,319.5C 364.319,312.9 363.319,306.233 362.5,299.5C 361.448,299.649 360.448,299.483 359.5,299C 362.833,297.667 366.167,296.333 369.5,295C 372.875,294.368 373.209,294.868 370.5,296.5 Z"/></g>
<g><path style="opacity:1" fill="#a0737c" d="M 180.5,321.5 C 181.492,323.456 182.492,325.456 183.5,327.5C 181.025,326.313 180.025,324.313 180.5,321.5 Z"/></g>
<g><path style="opacity:1" fill="#706bcd" d="M 266.5,319.5 C 266.728,323.39 266.394,327.224 265.5,331C 266.071,332.599 267.071,333.766 268.5,334.5C 267.167,334.5 265.833,334.5 264.5,334.5C 264.5,333.167 264.5,331.833 264.5,330.5C 264.43,326.575 265.097,322.909 266.5,319.5 Z"/></g>
<g><path style="opacity:1" fill="#73313a" d="M 163.5,313.5 C 150.068,330.107 136.402,346.607 122.5,363C 120.5,365 118.5,365 116.5,363C 115.446,361.612 115.28,360.112 116,358.5C 123.032,349.975 130.198,341.641 137.5,333.5C 138.906,333.027 139.573,332.027 139.5,330.5C 143.823,324.845 148.49,319.512 153.5,314.5C 153.461,316.359 154.294,317.692 156,318.5C 157.049,316.893 158.549,316.227 160.5,316.5C 160.121,313.433 161.121,312.433 163.5,313.5 Z"/></g>
<g><path style="opacity:1" fill="#424add" d="M 325.5,311.5 C 325.328,312.492 325.662,313.158 326.5,313.5C 326.5,313.833 326.5,314.167 326.5,314.5C 326.335,317.518 326.502,320.518 327,323.5C 327.417,324.756 328.25,325.423 329.5,325.5C 329.5,325.833 329.5,326.167 329.5,326.5C 330.114,330.135 330.448,333.802 330.5,337.5C 329.167,337.5 327.833,337.5 326.5,337.5C 323.518,337.963 320.518,338.296 317.5,338.5C 317.771,336.62 317.104,335.287 315.5,334.5C 314.655,333.329 313.989,331.995 313.5,330.5C 313.693,327.189 312.693,324.522 310.5,322.5C 310.5,320.167 310.5,317.833 310.5,315.5C 309.167,315.5 307.833,315.5 306.5,315.5C 306.5,313.833 306.5,312.167 306.5,310.5C 308.29,311.013 309.956,311.513 311.5,312C 312.38,310.644 312.714,309.144 312.5,307.5C 310.738,307.643 309.071,307.309 307.5,306.5C 305.915,303.087 306.415,300.087 309,297.5C 310.706,298.308 311.539,299.641 311.5,301.5C 314.527,300.491 317.527,300.491 320.5,301.5C 321.283,306.447 321.783,311.447 322,316.5C 322.549,314.24 323.716,312.574 325.5,311.5 Z"/></g>
<g><path style="opacity:1" fill="#d6d3c9" d="M 400.5,376.5 C 391.91,354.064 383.91,331.397 376.5,308.5C 376.435,308.062 376.601,307.728 377,307.5C 385,329.5 393,351.5 401,373.5C 401.74,374.749 401.573,375.749 400.5,376.5 Z"/></g>
<g><path style="opacity:0.769" fill="#b7999e" d="M 139.5,330.5 C 139.573,332.027 138.906,333.027 137.5,333.5C 137.427,331.973 138.094,330.973 139.5,330.5 Z"/></g>
<g><path style="opacity:0.784" fill="#a985bd" d="M 264.5,330.5 C 264.5,331.833 264.5,333.167 264.5,334.5C 265.833,334.5 267.167,334.5 268.5,334.5C 268.5,334.833 268.5,335.167 268.5,335.5C 266.585,335.784 264.919,335.451 263.5,334.5C 263.232,332.901 263.566,331.568 264.5,330.5 Z"/></g>
<g><path style="opacity:1" fill="#7e72c6" d="M 329.5,326.5 C 331.101,329.55 332.101,332.884 332.5,336.5C 332.158,337.338 331.492,337.672 330.5,337.5C 330.448,333.802 330.114,330.135 329.5,326.5 Z"/></g>
<g><path style="opacity:1" fill="#7961bb" d="M 280.5,334.5 C 280.443,335.609 280.11,336.609 279.5,337.5C 276.447,337.889 273.78,337.223 271.5,335.5C 274.609,335.736 277.609,335.403 280.5,334.5 Z"/></g>
<g><path style="opacity:1" fill="#98676d" d="M 179.5,335.5 C 182.438,337.703 184.105,340.703 184.5,344.5C 182.076,341.992 180.41,338.992 179.5,335.5 Z"/></g>
<g><path style="opacity:1" fill="#68212d" d="M 164.5,291.5 C 165.644,293.1 166.811,294.767 168,296.5C 168.383,295.944 168.883,295.611 169.5,295.5C 171.01,294.272 172.51,294.272 174,295.5C 173.842,298.179 173.342,300.846 172.5,303.5C 174.628,309.755 177.295,315.755 180.5,321.5C 180.025,324.313 181.025,326.313 183.5,327.5C 186.751,333.001 189.751,338.667 192.5,344.5C 192.548,347.313 193.215,349.979 194.5,352.5C 192.993,356.355 192.326,356.021 192.5,351.5C 191.5,351.5 190.5,351.5 189.5,351.5C 189.803,348.412 188.47,346.746 185.5,346.5C 184.662,346.158 184.328,345.492 184.5,344.5C 184.105,340.703 182.438,337.703 179.5,335.5C 174.788,327.756 170.288,319.756 166,311.5C 165.292,312.381 164.458,313.047 163.5,313.5C 161.121,312.433 160.121,313.433 160.5,316.5C 158.549,316.227 157.049,316.893 156,318.5C 154.294,317.692 153.461,316.359 153.5,314.5C 155.262,313.738 156.262,312.404 156.5,310.5C 156.833,309.5 157.5,308.833 158.5,308.5C 160.587,307.415 161.92,305.749 162.5,303.5C 161.833,302.167 161.167,300.833 160.5,299.5C 160.663,297.143 160.497,294.81 160,292.5C 156.996,289.862 156.329,286.862 158,283.5C 159.715,285.935 160.882,288.602 161.5,291.5C 162.5,291.5 163.5,291.5 164.5,291.5 Z"/></g>
<g><path style="opacity:1" fill="#ac84b8" d="M 315.5,334.5 C 317.104,335.287 317.771,336.62 317.5,338.5C 320.518,338.296 323.518,337.963 326.5,337.5C 326.5,337.833 326.5,338.167 326.5,338.5C 326.167,338.5 325.833,338.5 325.5,338.5C 323.236,339.219 320.903,339.552 318.5,339.5C 316.5,339.5 315.5,338.5 315.5,336.5C 315.5,335.833 315.5,335.167 315.5,334.5 Z"/></g>
<g><path style="opacity:1" fill="#f79380" d="M 263.5,334.5 C 264.919,335.451 266.585,335.784 268.5,335.5C 269.5,335.5 270.5,335.5 271.5,335.5C 273.78,337.223 276.447,337.889 279.5,337.5C 275.518,347.752 271.684,358.085 268,368.5C 267.253,371.924 267.42,375.257 268.5,378.5C 268.167,378.5 267.833,378.5 267.5,378.5C 265.924,371.412 266.591,364.412 269.5,357.5C 269.167,356.833 268.833,356.167 268.5,355.5C 267.148,356.518 266.148,357.851 265.5,359.5C 265.167,359 264.833,358.5 264.5,358C 265.053,350.678 266.053,343.511 267.5,336.5C 266.167,336.5 264.833,336.5 263.5,336.5C 262.655,341.034 262.655,345.534 263.5,350C 261.37,352.953 261.037,356.12 262.5,359.5C 259.828,361.425 258.828,364.092 259.5,367.5C 255.74,367.451 253.074,369.118 251.5,372.5C 250.817,372.137 250.15,371.804 249.5,371.5C 249.5,371.167 249.5,370.833 249.5,370.5C 251.812,368.854 253.812,366.854 255.5,364.5C 258.509,354.458 261.175,344.458 263.5,334.5 Z"/></g>
<g><path style="opacity:1" fill="#e4ddc9" d="M 315.5,336.5 C 315.5,338.5 316.5,339.5 318.5,339.5C 319.305,341.915 320.305,344.249 321.5,346.5C 320.351,346.791 319.684,347.624 319.5,349C 317.843,355.783 316.51,362.616 315.5,369.5C 314.041,369.433 312.708,369.766 311.5,370.5C 312.318,358.967 313.651,347.633 315.5,336.5 Z"/></g>
<g><path style="opacity:1" fill="#eea898" d="M 332.5,336.5 C 336.004,347.172 339.838,357.838 344,368.5C 344.932,371.823 344.432,374.823 342.5,377.5C 341.833,377.5 341.5,377.833 341.5,378.5C 340.027,377.929 338.36,377.929 336.5,378.5C 338.03,376.654 340.03,375.654 342.5,375.5C 342.664,372.813 342.497,370.146 342,367.5C 337.818,358.955 334.818,349.955 333,340.5C 331.246,338.75 329.079,338.083 326.5,338.5C 326.5,338.167 326.5,337.833 326.5,337.5C 327.833,337.5 329.167,337.5 330.5,337.5C 331.492,337.672 332.158,337.338 332.5,336.5 Z"/></g>
<g><path style="opacity:1" fill="#fb896f" d="M 267.5,378.5 C 262.517,379.442 257.517,380.276 252.5,381C 251.205,377.893 250.205,374.726 249.5,371.5C 250.15,371.804 250.817,372.137 251.5,372.5C 253.074,369.118 255.74,367.451 259.5,367.5C 258.828,364.092 259.828,361.425 262.5,359.5C 261.037,356.12 261.37,352.953 263.5,350C 262.655,345.534 262.655,341.034 263.5,336.5C 264.833,336.5 266.167,336.5 267.5,336.5C 266.053,343.511 265.053,350.678 264.5,358C 264.833,358.5 265.167,359 265.5,359.5C 266.148,357.851 267.148,356.518 268.5,355.5C 268.833,356.167 269.167,356.833 269.5,357.5C 266.591,364.412 265.924,371.412 267.5,378.5 Z"/></g>
<g><path style="opacity:1" fill="#fb8771" d="M 325.5,338.5 C 325.833,338.5 326.167,338.5 326.5,338.5C 329.079,338.083 331.246,338.75 333,340.5C 334.818,349.955 337.818,358.955 342,367.5C 342.497,370.146 342.664,372.813 342.5,375.5C 340.03,375.654 338.03,376.654 336.5,378.5C 336.5,378.833 336.5,379.167 336.5,379.5C 333.5,379.5 330.5,379.5 327.5,379.5C 327.771,377.62 327.104,376.287 325.5,375.5C 325.483,373.435 325.15,371.435 324.5,369.5C 326.042,368.699 327.708,368.366 329.5,368.5C 330.167,366.181 330.334,363.847 330,361.5C 327.636,358.443 325.636,355.11 324,351.5C 323.852,348.411 323.019,345.578 321.5,343C 322.482,341.946 323.649,341.446 325,341.5C 325.483,340.552 325.649,339.552 325.5,338.5 Z"/></g>
<g><path style="opacity:1" fill="#783c45" d="M 192.5,344.5 C 195.992,350.151 198.992,356.151 201.5,362.5C 199.536,362.977 198.202,364.144 197.5,366C 199.544,369.685 201.211,373.519 202.5,377.5C 203.5,377.5 204.5,377.5 205.5,377.5C 205.5,379.833 205.5,382.167 205.5,384.5C 197.818,372.473 191.151,359.806 185.5,346.5C 188.47,346.746 189.803,348.412 189.5,351.5C 190.5,351.5 191.5,351.5 192.5,351.5C 192.326,356.021 192.993,356.355 194.5,352.5C 193.215,349.979 192.548,347.313 192.5,344.5 Z"/></g>
<g><path style="opacity:1" fill="#f29d8a" d="M 325.5,338.5 C 325.649,339.552 325.483,340.552 325,341.5C 323.649,341.446 322.482,341.946 321.5,343C 323.019,345.578 323.852,348.411 324,351.5C 325.636,355.11 327.636,358.443 330,361.5C 330.334,363.847 330.167,366.181 329.5,368.5C 327.708,368.366 326.042,368.699 324.5,369.5C 323.833,369.5 323.5,369.167 323.5,368.5C 324.985,366.838 326.318,365.005 327.5,363C 325.062,357.631 323.062,352.131 321.5,346.5C 320.305,344.249 319.305,341.915 318.5,339.5C 320.903,339.552 323.236,339.219 325.5,338.5 Z"/></g>
<g><path style="opacity:1" fill="#f6e483" d="M 249.5,370.5 C 249.5,370.833 249.5,371.167 249.5,371.5C 244.681,371.352 240.015,372.018 235.5,373.5C 239.693,370.91 244.36,369.91 249.5,370.5 Z"/></g>
<g><path style="opacity:1" fill="#fbdb30" d="M 325.5,375.5 C 327.104,376.287 327.771,377.62 327.5,379.5C 330.5,379.5 333.5,379.5 336.5,379.5C 339.833,379.5 343.167,379.5 346.5,379.5C 346.5,381.167 346.5,382.833 346.5,384.5C 334.066,384.96 321.733,384.46 309.5,383C 305.634,376.638 307.3,372.638 314.5,371C 317.482,370.502 320.482,370.335 323.5,370.5C 323.402,372.553 324.069,374.22 325.5,375.5 Z"/></g>
<g><path style="opacity:1" fill="#6c2631" d="M 201.5,362.5 C 204.927,367.016 207.593,372.016 209.5,377.5C 209.427,379.027 210.094,380.027 211.5,380.5C 211.025,383.313 212.025,385.313 214.5,386.5C 217.44,389.521 218.44,393.021 217.5,397C 215.105,399.145 212.938,398.978 211,396.5C 208.854,392.559 207.021,388.559 205.5,384.5C 205.5,382.167 205.5,379.833 205.5,377.5C 204.5,377.5 203.5,377.5 202.5,377.5C 201.211,373.519 199.544,369.685 197.5,366C 198.202,364.144 199.536,362.977 201.5,362.5 Z"/></g>
<g><path style="opacity:0.639" fill="#d5d1c7" d="M 362.5,285.5 C 366.833,285.5 371.167,285.5 375.5,285.5C 378.533,285.132 381.2,285.798 383.5,287.5C 382.998,293.551 383.831,299.551 386,305.5C 394.763,336.056 403.596,366.556 412.5,397C 411.095,398.269 409.429,398.769 407.5,398.5C 405.295,391.887 403.295,385.22 401.5,378.5C 404.161,383.148 406.495,388.648 408.5,395C 408.85,396.257 409.517,396.591 410.5,396C 399.725,360.007 389.558,323.84 380,287.5C 372.907,286.729 365.74,286.729 358.5,287.5C 359.833,286.833 361.167,286.167 362.5,285.5 Z"/></g>
<g><path style="opacity:1" fill="#fbdb35" d="M 249.5,371.5 C 250.205,374.726 251.205,377.893 252.5,381C 257.517,380.276 262.517,379.442 267.5,378.5C 267.833,378.5 268.167,378.5 268.5,378.5C 269.791,378.263 270.791,378.596 271.5,379.5C 271.5,381.5 271.5,383.5 271.5,385.5C 270.167,385.5 268.833,385.5 267.5,385.5C 256.487,385.501 245.487,385.834 234.5,386.5C 232.5,386.5 231.5,385.5 231.5,383.5C 231.725,379.644 233.058,376.311 235.5,373.5C 240.015,372.018 244.681,371.352 249.5,371.5 Z"/></g>
<g><path style="opacity:0.416" fill="#c4a0a8" d="M 209.5,377.5 C 210.906,377.973 211.573,378.973 211.5,380.5C 210.094,380.027 209.427,379.027 209.5,377.5 Z"/></g>
<g><path style="opacity:1" fill="#f5e57e" d="M 235.5,373.5 C 233.058,376.311 231.725,379.644 231.5,383.5C 229.499,378.878 230.832,375.545 235.5,373.5 Z"/></g>
<g><path style="opacity:0.596" fill="#fceba0" d="M 341.5,378.5 C 342.167,378.5 342.5,378.167 342.5,377.5C 344.144,377.286 345.644,377.62 347,378.5C 347.789,380.712 347.622,382.712 346.5,384.5C 346.5,382.833 346.5,381.167 346.5,379.5C 343.167,379.5 339.833,379.5 336.5,379.5C 336.5,379.167 336.5,378.833 336.5,378.5C 338.36,377.929 340.027,377.929 341.5,378.5 Z"/></g>
<g><path style="opacity:1" fill="#a0747a" d="M 211.5,380.5 C 212.492,382.456 213.492,384.456 214.5,386.5C 212.025,385.313 211.025,383.313 211.5,380.5 Z"/></g>
<g><path style="opacity:0.927" fill="#f6e272" d="M 323.5,368.5 C 323.5,369.167 323.833,369.5 324.5,369.5C 325.15,371.435 325.483,373.435 325.5,375.5C 324.069,374.22 323.402,372.553 323.5,370.5C 320.482,370.335 317.482,370.502 314.5,371C 307.3,372.638 305.634,376.638 309.5,383C 321.733,384.46 334.066,384.96 346.5,384.5C 346.217,385.289 345.717,385.956 345,386.5C 333.242,385.678 321.409,385.178 309.5,385C 305.304,382.019 304.471,378.186 307,373.5C 308.615,372.614 310.115,371.614 311.5,370.5C 312.708,369.766 314.041,369.433 315.5,369.5C 318.054,368.612 320.721,368.279 323.5,368.5 Z"/></g>
<g><path style="opacity:0.58" fill="#f8ed8e" d="M 267.5,385.5 C 267.5,385.833 267.5,386.167 267.5,386.5C 256.333,387.36 245.333,387.36 234.5,386.5C 245.487,385.834 256.487,385.501 267.5,385.5 Z"/></g>
</svg>
