<?xml version="1.0" standalone="no"?>
<!DOCTYPE svg PUBLIC "-//W3C//DTD SVG 20010904//EN"
 "http://www.w3.org/TR/2001/REC-SVG-20010904/DTD/svg10.dtd">
<svg version="1.0" xmlns="http://www.w3.org/2000/svg"
 width="1280.000000pt" height="1280.000000pt" viewBox="0 0 1280.000000 1280.000000"
 preserveAspectRatio="xMidYMid meet">

<g transform="translate(0.000000,1280.000000) scale(0.100000,-0.100000)"
fill="#000000" stroke="none">
<path d="M6625 10337 c-108 -36 -197 -112 -246 -209 -16 -32 -35 -58 -43 -58
-7 0 -45 -16 -84 -35 -117 -59 -188 -157 -212 -292 -19 -107 21 -231 102 -319
47 -51 110 -93 115 -77 12 35 105 158 164 216 l70 69 62 -58 c121 -112 262
-191 435 -243 166 -50 180 -51 233 -18 130 80 273 23 273 -109 0 -114 -96
-218 -221 -239 -41 -6 -43 -9 -43 -40 0 -53 21 -189 30 -199 23 -23 200 124
286 237 107 143 159 288 158 447 0 151 -39 261 -136 381 -70 87 -223 181 -374
229 l-71 23 -34 71 c-42 89 -117 166 -196 202 -70 32 -204 42 -268 21z"/>
<path d="M6364 9166 c-11 -28 1 -51 27 -54 29 -3 44 18 34 49 -8 23 -53 26
-61 5z"/>
<path d="M6590 9161 c-5 -11 -21 -64 -34 -118 -14 -54 -34 -133 -46 -176 -11
-43 -18 -82 -15 -88 14 -22 35 -6 46 34 6 23 15 53 19 67 23 68 70 282 65 290
-10 16 -23 12 -35 -9z"/>
<path d="M6820 9135 c-15 -18 -10 -45 12 -59 14 -8 22 -6 39 10 17 18 19 25
10 43 -13 24 -43 28 -61 6z"/>
<path d="M6880 8846 c0 -73 -76 -156 -143 -156 -27 0 -52 -23 -42 -40 21 -34
148 19 188 79 28 42 51 116 42 131 -3 6 -15 10 -26 10 -13 0 -19 -7 -19 -24z"/>
<path d="M5405 7368 c-11 -51 -24 -483 -15 -492 23 -23 31 20 40 215 11 237
12 270 11 287 -2 21 -30 13 -36 -10z"/>
<path d="M8000 6956 c0 -15 34 -58 274 -346 93 -112 136 -156 154 -158 13 -2
23 1 21 6 -10 26 -422 512 -435 512 -8 0 -14 -6 -14 -14z"/>
<path d="M5988 6821 l-25 -29 -1069 14 c-588 7 -1143 14 -1234 15 -142 1 -165
0 -168 -14 -5 -22 62 -25 718 -32 994 -11 1740 -22 1744 -26 4 -4 29 -69 131
-339 24 -63 68 -180 98 -260 68 -180 195 -517 252 -670 24 -63 54 -143 67
-177 16 -44 28 -63 41 -63 9 0 17 4 17 8 0 11 -29 89 -175 477 -64 171 -130
344 -145 385 -15 41 -60 161 -100 265 -40 105 -87 232 -106 283 -18 52 -36 97
-39 101 -2 5 7 19 20 31 27 26 33 60 11 60 -8 0 -25 -13 -38 -29z"/>
<path d="M4980 6339 c-36 -15 -99 -79 -117 -119 -32 -74 -43 -128 -43 -210 0
-180 79 -326 183 -337 86 -10 154 48 194 168 22 65 25 260 5 326 -19 62 -72
135 -117 160 -43 25 -66 27 -105 12z m90 -50 c68 -39 110 -144 110 -279 0
-178 -67 -300 -164 -300 -47 0 -118 80 -139 156 -46 164 0 366 97 425 39 24
50 24 96 -2z"/>
<path d="M8085 5966 l-210 -52 -3 -53 c-3 -46 -1 -52 15 -49 12 2 19 14 21 35
2 17 9 33 15 35 7 3 103 27 214 54 168 40 203 52 203 67 0 24 -17 22 -255 -37z"/>
<path d="M3905 5610 c-472 -57 -835 -461 -835 -930 0 -385 270 -745 650 -868
121 -40 433 -132 444 -132 6 0 47 17 91 39 44 21 102 48 128 60 35 16 46 26
39 34 -8 10 -73 128 -117 213 -8 16 -11 31 -7 35 8 8 84 48 267 144 72 37 171
89 220 115 50 26 162 85 250 130 88 46 187 97 220 115 78 42 241 127 383 200
62 32 111 59 110 60 -7 6 -147 79 -323 170 -104 54 -194 101 -200 105 -5 4
-100 53 -210 110 -110 57 -227 117 -260 135 -192 103 -343 179 -403 204 -129
53 -307 77 -447 61z"/>
<path d="M7385 5608 c-129 -24 -260 -77 -460 -188 -103 -57 -187 -100 -195
-100 -4 0 -10 10 -13 23 -10 37 -34 64 -47 51 -8 -8 -7 -22 6 -53 9 -23 15
-43 13 -45 -2 -2 -76 -40 -164 -86 -88 -45 -187 -97 -220 -115 -33 -17 -162
-85 -287 -150 -126 -65 -228 -123 -228 -130 0 -6 -46 -36 -102 -65 -57 -29
-139 -72 -183 -95 -44 -23 -132 -69 -195 -102 -216 -113 -355 -186 -445 -233
-49 -26 -148 -78 -220 -115 -190 -99 -300 -157 -303 -160 -2 -2 24 -54 57
-116 39 -71 59 -119 55 -131 -3 -11 15 -57 49 -120 30 -57 92 -175 137 -263
46 -88 91 -171 100 -185 10 -14 41 -70 70 -125 77 -147 67 -141 180 -106 116
35 267 79 335 96 28 7 88 24 135 38 47 14 130 37 185 52 55 15 105 32 110 39
6 7 62 27 125 45 63 18 129 36 145 41 17 5 143 41 280 80 138 40 264 76 280
80 17 5 113 32 214 61 111 32 186 48 188 42 2 -6 26 -4 66 8 34 10 116 33 182
52 66 19 154 46 195 60 41 14 140 44 220 67 80 23 170 51 200 62 299 108 524
362 602 678 21 87 16 308 -10 401 -101 374 -377 632 -752 705 -83 16 -228 17
-305 2z"/>
<path d="M6393 3377 c-310 -88 -563 -163 -563 -167 0 -4 19 -13 43 -19 64 -17
115 -32 456 -129 173 -50 319 -88 325 -86 7 3 27 35 45 72 18 37 57 108 86
157 60 102 177 326 173 330 -2 2 -256 -69 -565 -158z"/>
</g>
</svg>
