<?xml version="1.0" standalone="no"?>
<!DOCTYPE svg PUBLIC "-//W3C//DTD SVG 20010904//EN"
 "http://www.w3.org/TR/2001/REC-SVG-20010904/DTD/svg10.dtd">
<svg version="1.0" xmlns="http://www.w3.org/2000/svg"
 width="612.000000pt" height="408.000000pt" viewBox="0 0 612.000000 408.000000"
 preserveAspectRatio="xMidYMid meet">

<g transform="translate(0.000000,408.000000) scale(0.100000,-0.100000)"
fill="#000000" stroke="none">
<path d="M3198 3528 c5 -47 -27 -126 -64 -154 l-30 -24 -22 21 c-13 11 -19 25
-16 31 4 6 3 8 -3 5 -14 -9 -43 64 -43 108 0 33 -1 34 -32 29 -147 -26 -294
-81 -398 -149 -70 -45 -170 -130 -170 -145 0 -4 26 -10 58 -12 36 -3 77 -14
112 -32 30 -16 73 -31 95 -33 85 -9 117 -69 76 -139 -15 -25 -21 -53 -21 -97
0 -188 -193 -330 -372 -274 -32 10 -48 11 -48 4 0 -21 64 -108 107 -147 99
-86 206 -117 438 -124 353 -10 474 -78 608 -341 108 -214 168 -265 313 -273
65 -3 97 0 153 17 38 12 73 26 77 32 3 6 -3 20 -14 32 -29 31 -52 103 -51 162
0 58 20 121 37 118 6 -2 9 3 6 11 -7 19 87 100 134 114 54 16 98 15 160 -7 34
-12 55 -15 59 -8 3 6 8 65 11 131 16 417 -229 847 -599 1050 -58 32 -169 76
-190 76 -5 0 -6 -15 -2 -32 21 -116 107 -199 220 -215 l48 -6 -50 -24 c-100
-46 -222 -20 -294 62 -49 56 -64 99 -63 181 l1 71 -76 7 c-42 3 -95 6 -118 6
-40 0 -41 0 -37 -32z m-144 -174 c22 -23 26 -35 26 -86 0 -53 -13 -101 -38
-136 -8 -12 -14 -11 -38 1 -66 35 -120 119 -110 173 14 71 108 100 160 48z
m256 -6 c0 -15 -32 -22 -40 -8 -11 18 11 41 28 28 6 -6 12 -15 12 -20z m-532
-21 c2 -12 -3 -17 -17 -17 -12 0 -21 6 -21 13 0 31 32 34 38 4z m912 -202 c0
-2 -7 -11 -16 -20 -13 -13 -19 -14 -25 -4 -10 17 8 39 27 32 8 -3 14 -7 14 -8z
m-763 -241 c8 -21 -19 -38 -30 -18 -9 16 -1 34 14 34 5 0 12 -7 16 -16z m832
-61 c21 -21 47 -43 57 -49 16 -9 19 -24 20 -80 1 -38 -3 -75 -9 -81 -11 -15
-97 -17 -147 -3 -30 8 -36 15 -38 41 -1 17 -11 56 -22 87 -24 67 -23 62 -7 62
7 0 28 13 47 30 19 16 41 29 48 30 8 0 31 -17 51 -37z m-365 -8 c-4 -14 -1
-32 6 -40 7 -8 10 -26 6 -39 -3 -14 -1 -28 4 -31 16 -10 40 14 33 32 -4 11 -2
14 5 9 22 -13 50 13 57 54 4 22 11 40 15 40 5 0 7 -10 4 -23 -3 -21 21 -123
41 -169 6 -15 2 -18 -21 -18 -16 0 -44 9 -62 20 -18 11 -39 20 -47 20 -35 0
-55 38 -55 105 0 37 4 65 10 65 6 0 8 -11 4 -25z m819 -111 c-3 -8 -11 -14
-18 -14 -18 0 -26 25 -12 39 14 14 38 -5 30 -25z m-1449 -90 c17 -7 10 -34 -9
-34 -17 0 -28 17 -20 30 7 12 8 12 29 4z m236 -23 c0 -5 10 -11 22 -14 17 -5
19 -9 9 -20 -6 -8 -9 -21 -6 -29 4 -10 -3 -14 -29 -15 -29 -1 -35 3 -39 24 -3
15 2 33 12 43 18 20 31 25 31 11z m1154 -187 c17 -7 10 -34 -9 -34 -14 0 -27
25 -18 34 8 7 8 7 27 0z m-201 -60 c-3 -8 -11 -14 -18 -14 -17 0 -27 28 -12
33 20 7 36 -4 30 -19z m-375 -127 c2 -12 -3 -17 -17 -17 -12 0 -21 6 -21 13 0
31 32 34 38 4z m205 -143 c11 -4 16 -13 13 -21 -3 -8 -6 -22 -6 -31 0 -12 -9
-17 -28 -18 -38 -1 -59 38 -34 66 9 10 22 16 27 14 6 -2 18 -7 28 -10z"/>
<path d="M2693 3111 c18 -28 35 -50 40 -50 11 -1 8 67 -3 74 -6 4 -8 9 -6 13
2 4 -11 8 -29 9 l-33 3 31 -49z"/>
<path d="M2511 2351 c-25 -25 -27 -54 -5 -75 22 -23 60 -20 78 6 19 27 20 39
4 60 -22 28 -55 31 -77 9z"/>
<path d="M2907 2339 c-84 -19 -124 -76 -113 -160 6 -41 4 -51 -14 -66 -11 -10
-20 -29 -20 -44 0 -26 27 -59 47 -59 6 0 17 -7 24 -16 7 -9 22 -19 32 -23 17
-6 16 -9 -7 -34 -14 -16 -26 -35 -26 -43 0 -11 -6 -14 -22 -9 -13 4 -31 9 -40
11 -12 4 -18 15 -18 35 0 63 -49 19 -149 -133 -107 -164 -106 -170 17 -230 48
-23 116 -59 152 -80 87 -53 157 -84 207 -93 77 -12 86 -2 119 125 23 91 54
273 48 282 -6 9 -50 10 -81 2 -23 -6 -73 -92 -73 -126 0 -21 -10 -23 -35 -5
-12 10 -14 16 -7 21 21 12 13 26 -14 26 -18 0 -25 4 -21 14 3 7 9 35 13 62 4
27 10 51 13 54 14 11 41 60 41 74 0 12 7 14 29 10 21 -5 34 -1 49 14 11 11 33
22 48 24 19 2 33 13 44 32 8 16 23 38 33 48 22 24 22 31 -7 65 -26 31 -42 138
-22 148 7 3 7 7 -1 11 -7 3 -13 13 -13 22 0 13 -2 14 -8 4 -7 -10 -19 -7 -58
12 -58 29 -114 37 -167 25z m-88 -479 l93 -33 -6 -36 c-3 -20 -6 -46 -6 -58 0
-13 -5 -23 -11 -23 -8 0 -10 15 -5 48 l6 48 -100 33 c-55 18 -100 36 -100 40
0 12 13 22 24 18 6 -2 53 -19 105 -37z m61 -264 c0 -8 -4 -18 -10 -21 -5 -3
-10 3 -10 14 0 12 5 21 10 21 6 0 10 -6 10 -14z m59 -12 c36 -7 43 -34 9 -33
-31 1 -52 11 -55 27 -3 14 2 14 46 6z"/>
<path d="M2591 2197 c-24 -29 17 -70 46 -46 8 7 13 22 11 33 -4 25 -40 33 -57
13z"/>
<path d="M4015 1661 c-88 -50 -142 -122 -164 -220 -7 -33 -6 -43 9 -56 17 -15
18 -14 25 27 8 52 25 110 35 121 4 5 1 -15 -6 -44 -16 -63 -18 -143 -4 -169 8
-14 5 -28 -11 -57 -23 -40 -27 -90 -9 -123 13 -25 33 -25 71 -3 27 16 30 16
45 1 15 -15 14 -17 -11 -34 -38 -25 -143 -24 -181 1 l-28 18 24 19 c22 18 22
20 6 36 -13 13 -20 14 -34 6 -24 -16 -23 -182 1 -246 24 -63 47 -81 110 -85
67 -5 96 11 124 67 29 58 43 213 22 251 -7 13 -12 30 -11 37 2 7 -8 12 -23 12
-39 0 -29 17 15 24 24 4 43 14 50 25 14 27 13 31 -10 31 -37 0 -20 17 22 23
23 3 45 13 51 22 5 9 23 32 40 52 l32 36 -53 -7 c-28 -4 -72 -15 -97 -26 l-45
-19 0 35 c0 36 0 36 -37 30 -33 -5 -35 -4 -19 7 42 27 66 53 72 79 6 27 5 28
-25 22 -40 -8 -39 -1 3 26 36 22 94 110 73 110 -7 0 -35 -13 -62 -29z m65
-272 c-47 -28 -108 -87 -127 -124 -9 -16 -25 -55 -35 -85 l-18 -55 5 48 c2 26
14 64 24 86 23 44 87 108 134 133 46 24 59 22 17 -3z"/>
<path d="M2205 1571 c-22 -10 -50 -29 -61 -42 -25 -28 -88 -166 -145 -317 -22
-59 -44 -111 -49 -116 -17 -17 -11 -30 21 -49 41 -23 32 -32 -10 -11 -18 9
-35 14 -38 11 -2 -3 9 -13 27 -22 18 -9 30 -19 27 -22 -3 -2 -14 0 -25 6 -12
6 -29 11 -39 10 -15 0 -15 -2 3 -9 12 -5 25 -14 30 -21 5 -9 2 -10 -12 -4 -10
4 -30 9 -44 11 -23 4 -24 4 -4 -5 24 -11 41 -31 25 -31 -5 0 -13 5 -16 10 -3
6 -21 10 -38 9 l-32 -1 32 -14 c33 -14 53 -40 53 -68 0 -23 -59 -30 -110 -12
l-45 15 25 -21 c20 -16 35 -19 82 -16 48 4 62 10 97 41 22 20 52 39 65 43 27
7 37 33 40 114 2 49 20 80 82 147 29 32 89 128 99 161 7 25 14 27 38 10 15
-12 13 -20 -22 -98 -21 -47 -53 -125 -70 -175 -17 -49 -39 -105 -49 -124 -13
-25 -14 -35 -5 -38 7 -3 23 -13 35 -24 l23 -20 -32 16 c-47 22 -64 18 -24 -6
41 -25 36 -35 -8 -13 -18 9 -35 14 -38 10 -3 -3 6 -11 21 -17 39 -18 31 -30
-9 -13 -21 8 -35 10 -35 4 0 -5 6 -10 14 -10 7 0 19 -7 26 -15 16 -19 11 -19
-28 1 -23 11 -36 12 -49 5 -16 -9 -16 -10 -2 -11 28 0 69 -40 69 -66 0 -23 -3
-24 -59 -24 -33 0 -63 4 -66 10 -3 5 -11 10 -17 10 -24 0 16 -30 48 -36 55
-10 101 4 150 46 25 22 54 40 64 40 15 0 21 12 30 56 6 30 9 62 6 70 -7 18 12
50 70 119 52 62 114 164 114 188 0 22 6 22 40 -3 64 -46 161 -83 228 -87 58
-4 72 -2 102 19 19 13 48 43 64 66 26 36 29 46 18 62 -7 11 -12 28 -12 39 0
15 -10 21 -42 26 -69 11 -125 41 -176 92 l-47 49 -155 32 c-179 37 -201 38
-255 13z"/>
<path d="M3800 1416 c0 -2 8 -10 18 -17 15 -13 16 -12 3 4 -13 16 -21 21 -21
13z"/>
</g>
</svg>
